<?xml version="1.0" encoding="utf-8"?>
<!-- Generator: Adobe Illustrator 23.0.5, SVG Export Plug-In . SVG Version: 6.00 Build 0)  -->
<svg version="1.1" id="ELEMENTS" xmlns="http://www.w3.org/2000/svg" xmlns:xlink="http://www.w3.org/1999/xlink" x="0px" y="0px"
	 viewBox="0 0 19 19" style="enable-background:new 0 0 19 19;" xml:space="preserve">
<g>
	<path class="st0" d="M14.5,3.4c-0.6,0-1.1,0.5-1.1,1.1c0,0.6,0.5,1.1,1.1,1.1c0.6,0,1.1-0.5,1.1-1.1C15.6,3.9,15.1,3.4,14.5,3.4z"
		/>
	<path class="st0" d="M9.6,4.8C7,4.8,4.9,6.9,4.9,9.5c0,2.6,2.1,4.7,4.7,4.7c2.6,0,4.7-2.1,4.7-4.7C14.3,6.9,12.2,4.8,9.6,4.8z
		 M9.6,12.5c-1.7,0-3-1.3-3-3c0-1.7,1.3-3,3-3c1.7,0,3,1.3,3,3C12.6,11.2,11.2,12.5,9.6,12.5z"/>
	<path class="st0" d="M13.3,19H5.7C2.6,19,0,16.4,0,13.3V5.7C0,2.6,2.6,0,5.7,0h7.6C16.4,0,19,2.6,19,5.7v7.6
		C19,16.4,16.4,19,13.3,19z M5.7,1.8c-2.2,0-3.9,1.8-3.9,3.9v7.6c0,2.2,1.8,3.9,3.9,3.9h7.6c2.2,0,3.9-1.8,3.9-3.9V5.7
		c0-2.2-1.8-3.9-3.9-3.9H5.7z"/>
</g>
</svg>
