<?xml version="1.0" encoding="utf-8"?>
<!-- Generator: Adobe Illustrator 23.0.5, SVG Export Plug-In . SVG Version: 6.00 Build 0)  -->
<svg version="1.1" id="Calque_1" xmlns="http://www.w3.org/2000/svg" xmlns:xlink="http://www.w3.org/1999/xlink" x="0px" y="0px"
	 viewBox="0 0 50 50" style="enable-background:new 0 0 50 50;" xml:space="preserve">
<style type="text/css">
	.st0{fill:#838C7C;}
</style>
<g>
	<path class="st0" d="M15.7,32.7c1,0,1.7-0.7,1.4-1.5l-0.3-0.7l-0.6-1.2c-0.2-0.3-0.8-0.3-0.9,0l-0.6,1.2l-0.3,0.7
		C14,32,14.7,32.7,15.7,32.7z"/>
	<path class="st0" d="M15.7,35.6c-1,0-1.7,0.7-1.4,1.5l0.3,0.7l0.6,1.2c0.2,0.3,0.8,0.3,0.9,0l0.6-1.2l0.3-0.7
		C17.4,36.3,16.7,35.6,15.7,35.6z"/>
	<path class="st0" d="M20.5,33.7l-1.2-0.6l-0.7-0.3c-0.7-0.3-1.5,0.4-1.5,1.4c0,1,0.7,1.7,1.5,1.4l0.7-0.3l1.2-0.6
		C20.8,34.5,20.8,33.8,20.5,33.7z"/>
	<path class="st0" d="M12.8,32.8l-0.7,0.3l-1.2,0.6c-0.3,0.2-0.3,0.8,0,0.9l1.2,0.6l0.7,0.3c0.7,0.3,1.5-0.4,1.5-1.4
		C14.3,33.1,13.5,32.4,12.8,32.8z"/>
</g>
</svg>
