
<!-- Generator: Adobe Illustrator 23.0.5, SVG Export Plug-In . SVG Version: 6.00 Build 0)  -->
<svg version="1.1" id="Calque_1" xmlns="http://www.w3.org/2000/svg" xmlns:xlink="http://www.w3.org/1999/xlink" x="0px" y="0px"
	 viewBox="0 0 221 55.4" style="enable-background:new 0 0 221 55.4;" xml:space="preserve">
<style type="text/css">
	.st0{fill:#ffffff;}
</style>
	<g>
	<path class="st0" d="M70.7,37.6c-0.7,0.7-1.5,1-2.4,1c-1,0-1.8-0.3-2.4-1c-0.7-0.7-1-1.5-1-2.4c0-0.9,0.3-1.8,1-2.4
		c0.7-0.7,1.5-1,2.4-1c0.9,0,1.7,0.4,2.5,1.1l-0.7,0.6c-0.6-0.5-1.2-0.8-1.9-0.8c-0.7,0-1.3,0.3-1.8,0.7c-0.5,0.5-0.8,1.1-0.8,1.8
		c0,0.7,0.3,1.3,0.8,1.8c0.5,0.5,1.1,0.8,1.8,0.8c0.6,0,1.1-0.2,1.5-0.5v-2h0.9V37.6z"/>
		<path class="st0" d="M74.7,31.2l-0.4-0.3l-0.4,0.3H73l1-1h0.6l1,1H74.7z M74.7,31.8v6.7h-0.9v-6.7H74.7z"/>
		<path class="st0" d="M79.8,32.7v5.9H79v-5.9h-1.6v-0.9h4v0.9H79.8z"/>
		<path class="st0" d="M87.6,31.8v0.9h-2.8v2.1h2.8v0.9h-2.8v2.1h2.8v0.9H84v-6.7H87.6z"/>
		<path class="st0" d="M95.9,31.8c1.1,0,1.9,0.3,2.6,0.9c0.7,0.7,1,1.5,1,2.4c0,1-0.3,1.8-1,2.4c-0.6,0.6-1.5,0.9-2.6,0.9h-0.6v-6.7
		H95.9z M96.1,32.7v5c0.7,0,1.3-0.2,1.7-0.7c0.5-0.5,0.8-1.1,0.8-1.8c0-0.7-0.3-1.3-0.8-1.8C97.3,32.9,96.8,32.7,96.1,32.7z"/>
		<path class="st0" d="M105.8,31.8v0.9h-2.8v2.1h2.8v0.9h-2.8v2.1h2.8v0.9h-3.6v-6.7H105.8z"/>
		<path class="st0" d="M118.7,36.9l0.7,0.6c-0.8,0.7-1.6,1.1-2.5,1.1c-1,0-1.8-0.3-2.4-1c-0.7-0.7-1-1.5-1-2.4c0-0.9,0.3-1.8,1-2.4
		c0.7-0.7,1.5-1,2.4-1c0.9,0,1.7,0.4,2.5,1.1l-0.7,0.6c-0.6-0.5-1.2-0.8-1.9-0.8c-0.7,0-1.3,0.3-1.8,0.7c-0.5,0.5-0.8,1.1-0.8,1.8
		c0,0.7,0.3,1.3,0.8,1.8c0.5,0.5,1.1,0.8,1.8,0.8C117.4,37.7,118,37.5,118.7,36.9z"/>
		<path class="st0" d="M123,35.7v2.8h-0.9v-6.7h0.9v3.1h2.1v-3.1h0.9v6.7H125v-2.8H123z"/>
		<path class="st0" d="M131.4,31.8l2.5,6.7h-0.9l-0.9-2.4h-1.8l-0.9,2.4h-0.9l2.5-6.7H131.4z M131.7,35.3l-0.6-1.6l-0.6,1.6H131.7z"
		/>
		<path class="st0" d="M138.1,36.4h-0.8v2.2h-0.9v-6.7h1.9c0.5,0.1,1,0.3,1.4,0.7c0.4,0.4,0.7,1,0.7,1.6c0,0.6-0.2,1.2-0.7,1.6
		c-0.3,0.3-0.5,0.5-0.7,0.5l1.5,2.3h-1.1L138.1,36.4z M137.3,32.7v2.8h0.8c0.4,0,0.7-0.1,1-0.4c0.3-0.3,0.4-0.6,0.4-1
		c0-0.4-0.1-0.7-0.4-1c-0.3-0.3-0.6-0.4-1-0.4H137.3z"/>
		<path class="st0" d="M144.1,31.8l2.2,3.8l2.2-3.8h0.8v6.7h-0.9v-4.9l-2.1,3.6l-2.1-3.6v4.9h-0.9v-6.7H144.1z"/>
		<path class="st0" d="M156.1,31.8v0.9h-2.8v2.1h2.8v0.9h-2.8v2.1h2.8v0.9h-3.6v-6.7H156.1z"/>
</g>
	<g>
	<path class="st0" d="M83.4,52.1c1.3,0.8,2.9,0.8,4.3,0.5c1.5-0.3,2.8-0.9,4.2-1.5c1.4-0.6,2.8-1.1,4.4-1.1c1.5,0,3.2,0.6,4.1,1.9
		c0.4,0.6,0.8,1.5,0.6,2.3c-0.1,0.4-0.4,0.8-0.9,1c-0.4,0.2-1,0.1-1.4-0.2c-0.7-0.6-0.7-1.8-0.1-2.5c0.6-0.7,1.4-1,2.1-1.2
		c3-0.8,6.1-0.2,9,0.5c2.9,0.8,5.7,1.7,8.7,1.4c1.4-0.1,2.9-0.6,3.7-1.7c0.4-0.5,0.6-1.4,0.2-1.6c-0.2-0.1-0.5-0.1-0.8,0
		c-0.2,0.1-0.4,0.4-0.3,0.7c0,0.6,0.6,1.2,1.2,1.3c0.7,0.2,1.4,0.1,2.1,0c1.5-0.2,2.9-0.6,4.4-0.9c1.5-0.2,3-0.2,4.5,0.1
		c1.5,0.3,2.9,0.8,4.3,1.3c-1.4-0.5-2.8-0.9-4.3-1.2c-1.5-0.3-2.9-0.3-4.4,0c-1.5,0.3-2.9,0.7-4.4,1c-0.7,0.1-1.5,0.3-2.3,0.1
		c-0.8-0.2-1.6-0.8-1.7-1.7c-0.1-0.4,0.2-1,0.6-1.2c0.4-0.2,0.9-0.3,1.4-0.1c0.2,0.1,0.4,0.4,0.5,0.6c0.1,0.2,0.1,0.5,0,0.7
		c-0.1,0.4-0.2,0.8-0.5,1.1c-1,1.4-2.6,1.9-4.1,2c-3.1,0.3-6-0.7-8.9-1.4c-2.8-0.8-5.8-1.4-8.6-0.6c-0.7,0.2-1.4,0.5-1.8,0.9
		c-0.2,0.2-0.3,0.5-0.3,0.8c0,0.3,0.1,0.6,0.3,0.8c0.4,0.4,1.1,0,1.2-0.5c0.2-0.6-0.1-1.3-0.4-1.9c-0.8-1.1-2.3-1.7-3.7-1.7
		c-1.4-0.1-2.9,0.4-4.3,0.9c-1.4,0.5-2.8,1.1-4.3,1.4C86.3,53,84.7,52.9,83.4,52.1z"/>
</g>
	<g>
	<path class="st0" d="M92.1,1.5c2.3-2.1,6.2-2.1,8.5,0c0.4-0.4,0.5-1.3,1.2-1.3c0.4,1.8,0.3,3.7,0.4,5.5c-1,0.4-1.1-0.7-1.4-1.2
		c-0.5-1.4-1.7-2.7-3.2-3c-1.3-0.2-2.9-0.2-3.9,0.9c-1.3,1.3-0.9,3.5,0.6,4.5c2.6,1.9,6,2.5,8.3,4.9c2,2.1,1.4,5.9-0.8,7.7
		c-2.9,2.3-7.6,2.4-10.4-0.1c-0.3,0.4-0.6,0.8-0.9,1.2c-0.2,0-0.5,0-0.6,0c-0.1-2-0.3-3.9-0.4-5.9c0.3,0,0.7,0,1,0
		c0.3,1.1,0.6,2.2,1.4,3.1c1.8,2.1,5.2,2.7,7.6,1.2c1.8-1.1,1.8-4.1,0.1-5.3c-2.7-2-6.4-2.5-8.4-5.2C89.9,6.3,90.3,3.3,92.1,1.5z"/>
		<path class="st0" d="M0.2,0.4c2.8,0,5.5,0,8.3,0C8.5,0.7,8.4,1,8.3,1.3c-0.8,0-1.5,0.2-2.1,0.6C5.9,2.8,5.8,3.6,5.8,4.5
		c0,4,0,7.9,0,11.9c0,1.1,0.4,2.5,1.6,2.9c2.3,0.6,4.9,0.6,7.2-0.2c1.5-0.6,1.7-2.4,2.5-3.6l0.7-0.1c0,1.8-0.2,3.6-0.4,5.4
		c-5.8,0-11.6,0-17.4,0c0-0.3,0-0.7,0-1c0.8,0,1.7-0.2,2.4-0.6C2.7,18.7,3,17.9,3,17.2c0-3.6,0-7.2,0-10.8c0-1.5,0.1-3-0.4-4.4
		C1.9,1.5,1.2,1.4,0.4,1.4C0.3,1,0.3,0.7,0.2,0.4z"/>
		<path class="st0" d="M19.6,0.3c5.2-0.1,10.4,0,15.6,0c0.1,1.6,0.2,3.2,0.2,4.7c-0.3,0-0.5,0-0.8,0c-0.3-1.5-1.1-3-2.7-3.4
		c-2.2-0.4-4.5-0.2-6.7-0.2c-0.1,2.7,0,5.3,0,8c1.5-0.1,3.1,0.2,4.3-0.9c0.9-0.6,0.2-2.5,1.7-2.2c0,2.4,0,4.8,0,7.3
		c-0.3,0-0.6,0.1-1,0.1c-0.2-0.7-0.1-1.7-0.8-2.2c-1.2-1-2.8-0.8-4.3-0.9c0.1,2.3-0.1,4.6,0.1,7c0.2,1.3,1.5,1.9,2.7,2.1
		c1.8,0.1,3.8,0.2,5.4-0.6c1.3-0.7,1.7-2.3,2.2-3.5c0.2,0,0.6,0,0.8,0c0,1.8-0.2,3.6-0.4,5.4c-5.6,0-11.1,0-16.7,0c0-0.3,0-0.7,0-1
		c0.8,0,1.7-0.2,2.4-0.6c0.7-1.4,0.5-2.9,0.5-4.4c0-3.6,0-7.2,0-10.8c0-0.8-0.2-1.5-0.4-2.3c-0.7-0.4-1.4-0.5-2.2-0.6
		C19.8,1,19.7,0.7,19.6,0.3z"/>
		<path class="st0" d="M55.3,0.2c2.9-0.6,5.8,0.2,8.3,1.7c0.1-0.5,0.3-1,0.4-1.6c0.2,0,0.6,0,0.8,0c0.1,2.1,0.2,4.1,0.2,6.2
		c-0.2,0-0.7-0.1-0.9-0.1c-0.7-1.7-1.6-3.4-3.3-4.3c-1.5-0.9-3.3-0.7-4.9-0.6c-2.6,0.8-4.4,3.2-4.8,5.8c-0.6,3.2-0.6,6.9,1.3,9.7
		c1.9,2.8,5.9,3.4,8.8,1.9c1.7-1,2.8-2.8,3.3-4.7c0.4,0,0.7,0,1.1,0c0,2.2,0,4.4,0,6.6c-0.2,0-0.7,0-0.9,0c-0.2-0.7-0.4-1.4-0.6-2
		c-2.6,1.9-5.9,2.8-9.1,2.1c-3.2-0.5-5.9-2.8-7-5.8C46.8,12,47,8.3,48.5,5.3C49.8,2.6,52.4,0.8,55.3,0.2z"/>
		<path class="st0" d="M105.8,0.3c6.8,0,13.5,0,20.3,0c0.1,1.7,0.2,3.4,0.2,5.2c-0.3,0-0.8-0.1-1-0.1c-0.2-1-0.4-2.1-1-3
		c-1.7-1.1-3.8-0.9-5.7-0.8c-0.5,0-1,0.4-0.9,0.9c0,4.8,0,9.5,0,14.3c0,1,0.3,1.9,0.8,2.7c0.8,0.4,1.7,0.5,2.7,0.5c0,0.3,0,0.8,0,1
		c-3.4,0-6.8,0-10.2,0c0-0.3,0-0.7,0.1-1c0.9,0,1.8-0.2,2.6-0.5c0.5-0.7,0.8-1.5,0.8-2.4c0.1-4.6,0-9.3,0-13.9
		c0-0.5,0.1-1.2-0.5-1.5c-1.6-0.2-3.3-0.2-4.9,0.1c-1.7,0.4-2.2,2.3-2.3,3.8c-0.2,0-0.7,0-0.9,0C105.8,3.7,105.8,2,105.8,0.3z"/>
		<path class="st0" d="M128.2,0.3c5.2-0.1,10.4,0,15.6,0c0.1,1.6,0.2,3.2,0.2,4.7c-0.3,0-0.5,0-0.8,0c-0.3-1.4-1.1-3-2.6-3.4
		c-2.2-0.4-4.5-0.2-6.7-0.2c-0.1,2.7,0,5.3,0,8c1.4-0.1,3.1,0.2,4.3-0.9c0.9-0.6,0.2-2.5,1.7-2.2c0,2.4,0,4.9,0,7.3
		c-0.3,0-0.6,0-0.9,0c-0.2-0.8-0.2-1.9-1-2.3c-1.2-0.8-2.7-0.7-4.1-0.8c0.1,2.3-0.1,4.6,0.1,7c0.1,1.3,1.5,1.9,2.7,2.1
		c1.8,0.1,3.8,0.2,5.5-0.7c1.3-0.7,1.7-2.2,2.2-3.5c0.2,0,0.6,0,0.8,0c0,1.8-0.2,3.6-0.4,5.4c-5.6,0-11.1,0-16.7,0
		c0-0.3,0-0.7,0.1-1c0.8,0,1.7-0.2,2.4-0.6c0.3-0.7,0.5-1.5,0.5-2.2c0-4.2,0-8.4,0-12.6c0-0.9,0-1.8-0.5-2.6
		c-0.5-0.6-1.4-0.5-2.1-0.6C128.4,1,128.3,0.7,128.2,0.3z"/>
		<path class="st0" d="M147.6,0.4c2.8,0,5.5,0,8.3,0c-0.1,0.3-0.1,0.7-0.2,1c-0.7,0.1-1.6,0-2.1,0.7c-0.5,0.9-0.4,1.9-0.5,2.9
		c0,3.8,0,7.7,0,11.5c0,1.1,0.4,2.5,1.5,2.9c2.3,0.7,4.9,0.6,7.2-0.2c1.4-0.6,1.7-2.2,2.3-3.4c0.2-0.1,0.7-0.2,0.9-0.2
		c0,1.8-0.2,3.6-0.4,5.4c-5.8,0-11.6,0-17.4,0c0-0.3,0-0.7,0-1c0.8,0,1.7-0.2,2.4-0.6c0.3-0.7,0.5-1.4,0.5-2.2c0-4.3,0-8.7,0-13
		c0-0.8-0.2-1.5-0.4-2.3c-0.7-0.4-1.4-0.5-2.2-0.6C147.8,1,147.7,0.7,147.6,0.4z"/>
		<path class="st0" d="M187.9,0.3c2.8,0,5.5,0,8.3,0c-0.1,0.3-0.1,0.7-0.2,1c-0.5,0-0.9,0.1-1.4,0.1c-1.2,0.9-1.1,2.5-1.1,3.8
		c0,3.8,0,7.7,0,11.5c0.1,1.1,0.1,2.5,1.2,3c0.6,0.1,1.1,0.1,1.7,0.2c0,0.3,0,0.7,0,1c-2.9,0-5.8,0-8.7,0c0-0.3,0-0.7,0.1-1
		c0.9,0,1.9-0.1,2.5-0.9c0.5-1,0.4-2.2,0.4-3.4c0-4,0.1-7.9,0-11.9c0-0.9-0.4-1.8-1.1-2.3c-0.5,0-0.9-0.1-1.4-0.1
		C188,1,188,0.7,187.9,0.3z"/>
		<path class="st0" d="M76.8,0.3c0.3,0,0.9,0,1.2,0c2.2,5.4,4.3,10.8,6.5,16.2c0.7,1.6,1.5,3.7,3.6,3.5c0,0.3,0,0.7,0,1
		c-2.9,0-5.9,0-8.8,0c0-0.3,0-0.7,0-1c0.7-0.1,1.4-0.1,2.1-0.2c0.2-0.6,0.5-1.2,0.3-1.9c-0.4-1.5-1.1-3-1.6-4.5c-2.4,0-4.7,0-7.1,0
		c-0.7,1.8-1.7,3.6-1.6,5.5c0.1,1,1.2,0.9,2,1c0,0.3,0,0.7,0,1c-2.2,0-4.4,0-6.6,0c-0.3-1.5,1.3-1,2-1.7c0.6-0.6,0.9-1.5,1.3-2.3
		C72.4,11.4,74.6,5.9,76.8,0.3 M76.8,4.2c-1,2.6-2.1,5.2-3.1,7.8c2,0,4,0,6,0C78.7,9.4,77.7,6.8,76.8,4.2z"/>
		<path class="st0" d="M175.7,0.3c0.3,0,0.9,0,1.2,0c1.8,4.5,3.6,9,5.4,13.4c0.8,1.8,1.4,3.7,2.6,5.4c0.5,0.7,1.4,0.7,2.2,0.8
		c0,0.3,0,0.7,0,1c-2.9,0-5.9,0-8.8,0c0-0.3,0-0.7,0-1c0.8-0.1,2.2,0.2,2.4-1c0-2-1.1-3.7-1.7-5.5c-2.4,0-4.7,0-7.1,0
		c-0.6,1.6-1.4,3.1-1.6,4.8c-0.1,0.6,0.1,1.2,0.6,1.6c0.5,0,0.9,0,1.4,0c0,0.3,0,0.7,0,1.1c-2.2,0-4.4,0-6.6,0c-0.3-1.4,1.3-1,2-1.7
		c0.6-0.6,0.9-1.5,1.3-2.2C171.3,11.4,173.5,5.9,175.7,0.3 M172.5,12c2,0,4,0,6,0c-1-2.6-2-5.2-2.9-7.8
		C174.6,6.8,173.6,9.4,172.5,12z"/>
		<path class="st0" d="M199.1,0.4c1.8-0.1,3.6,0,5.5,0c3.6,4.9,7.2,9.7,10.8,14.5c0.3,0.4,0.6,0.7,0.9,1c0.1-3.6,0-7.3,0-10.9
		c-0.1-1.1,0.1-2.3-0.7-3.2c-0.7-0.5-2.3,0-2-1.4c2.4,0,4.9,0,7.3,0c0.4,1.1-0.9,0.9-1.5,1.2c-1.2,0.2-1.4,1.6-1.5,2.6
		c-0.1,5.7,0,11.4,0,17.1c-0.5,0-1.1,0-1.6,0c-4.3-5.7-8.6-11.3-12.8-17c-0.1,3.8,0,7.6,0,11.4c0.1,1.1-0.1,2.4,0.4,3.4
		c0.4,0.8,1.4,0.7,2.2,0.8c0,0.3,0,0.8,0,1c-2.4,0-4.8,0-7.3,0c0-0.3,0-0.7,0-1c0.9-0.1,1.9-0.1,2.5-0.8c0.6-1,0.4-2.3,0.5-3.4
		c0-3.9,0.1-7.9,0-11.8c0-0.9-0.4-1.8-1.1-2.4c-0.5,0-0.9-0.1-1.4-0.1C199.2,1.1,199.1,0.6,199.1,0.4z"/>
</g>
</svg>
